<?xml version="1.0" encoding="UTF-8" standalone="no"?>
<!-- Created with Inkscape (http://www.inkscape.org/) -->

<svg
   width="11.385091mm"
   height="16.712057mm"
   viewBox="0 0 11.385091 16.712057"
   version="1.1"
   id="svg1"
   xmlns="http://www.w3.org/2000/svg"
   xmlns:svg="http://www.w3.org/2000/svg">
  <defs
     id="defs1" />
  <g
     id="layer1"
     transform="translate(-9.7607089,-8.9970876)">
    <path
       style="clip-rule:evenodd;fill-rule:evenodd;stroke-width:0.264583"
       d="m 15.45706,25.709144 c -0.320939,-0.416983 -0.567002,-0.704056 -0.777346,-1.015471 -1.122098,-1.660789 -2.29817,-3.290093 -3.332956,-5.004064 -0.932392,-1.545167 -1.6147523,-3.221302 -1.5851193,-5.080265 0.01693,-1.066535 0.2709343,-2.097616 0.8067153,-3.028685 0.184415,-0.320675 0.466196,-0.60616 0.756708,-0.841904 1.238779,-1.005152 2.6162,-1.706034 4.250796,-1.740429 1.395148,-0.02911 2.597679,0.454818 3.605742,1.427427 0.7112,0.686329 1.233487,1.499129 1.637241,2.391304 0.565944,1.250421 0.307711,2.506662 -0.100541,3.712633 -0.603779,1.784615 -1.378215,3.4925 -2.562225,4.995598 -0.677598,0.86016 -1.269471,1.788319 -1.887273,2.694517 -0.128323,0.188648 -0.189971,0.421481 -0.300038,0.624152 -0.137054,0.254 -0.293158,0.49821 -0.511704,0.865187 z M 15.266825,24.85163 c 0.106098,-0.09578 0.162718,-0.130175 0.197114,-0.179917 0.730515,-1.062038 1.417638,-2.156354 2.196571,-3.181615 1.230313,-1.620308 2.137304,-3.394075 2.690283,-5.34326 0.265907,-0.937419 0.461434,-1.913202 0.06853,-2.862792 -0.224103,-0.541602 -0.526521,-1.059391 -0.852488,-1.54887 -1.058862,-1.591998 -2.939521,-2.484702 -4.888177,-2.039938 -0.845873,0.193146 -1.590146,0.53975 -2.311665,0.991658 -1.622425,1.015736 -2.5373543,3.024717 -2.175668,4.901142 0.208756,1.082146 0.506677,2.148417 1.070768,3.104092 0.815975,1.382183 1.659996,2.748491 2.525978,4.099718 0.452702,0.705909 0.977106,1.365515 1.478756,2.059782 z"
       id="path204" />
    <path
       style="clip-rule:evenodd;fill:#ef1e4d;fill-rule:evenodd;stroke-width:0.264583"
       d="M 15.266825,24.85163 C 14.765175,24.157363 14.240771,23.497757 13.788069,22.791848 12.922352,21.440621 12.078066,20.074313 11.262091,18.69213 10.698,17.736455 10.400079,16.669919 10.191323,15.588038 c -0.3616863,-1.876689 0.553243,-3.885671 2.175668,-4.901142 0.721784,-0.451908 1.465792,-0.798512 2.311665,-0.991658 1.948392,-0.444764 3.829315,0.44794 4.888177,2.039938 0.325702,0.489743 0.628385,1.007533 0.852488,1.54887 0.392906,0.94959 0.197379,1.925373 -0.06853,2.862792 -0.552979,1.949185 -1.45997,3.722952 -2.690283,5.34326 -0.778669,1.025261 -1.466056,2.119842 -2.196571,3.181615 -0.0344,0.04974 -0.09102,0.08414 -0.197114,0.179917 z M 11.422164,14.822334 c 0.0209,0.298979 0.02778,0.446881 0.04233,0.594254 0.170391,1.748631 1.62851,3.361531 3.725068,3.186642 1.096698,-0.09155 2.118255,-0.458523 2.960423,-1.176602 1.325827,-1.130565 1.729052,-2.691871 0.910961,-4.205552 -0.559594,-1.035315 -1.459177,-1.741488 -2.543704,-2.197894 -0.150284,-0.06324 -0.327025,-0.08176 -0.492919,-0.08864 -1.167871,-0.05001 -2.211917,0.323321 -3.11494,1.034257 -0.959114,0.754327 -1.493308,1.7526 -1.487223,2.853531 z"
       id="path217" />
    <path
       style="clip-rule:evenodd;fill-rule:evenodd;stroke-width:0.264583"
       d="m 11.422164,14.822334 c -0.0058,-1.100667 0.528109,-2.099204 1.486959,-2.853531 0.903023,-0.7112 1.947068,-1.084263 3.114939,-1.034257 0.165894,0.0069 0.342636,0.0254 0.492919,0.08864 1.084792,0.456406 1.98411,1.162579 2.543704,2.197894 0.818092,1.513945 0.414602,3.074987 -0.91096,4.205552 -0.842169,0.718343 -1.863725,1.08532 -2.960423,1.176602 -2.096558,0.174889 -3.554677,-1.438011 -3.725069,-3.186642 -0.01429,-0.147373 -0.02117,-0.295275 -0.04207,-0.594254 z m 7.562321,-0.04842 c 0.0291,-1.074473 -0.455083,-1.946539 -1.192742,-2.636308 -0.810154,-0.756973 -1.783556,-1.071298 -2.919147,-0.696383 -0.70194,0.231775 -1.288521,0.611187 -1.830123,1.091935 -0.993775,0.882121 -1.343025,2.598473 -0.748242,3.782483 0.121973,0.242623 0.296863,0.459846 0.457729,0.681302 0.628386,0.864129 1.52744,1.184011 2.540265,1.129507 0.804862,-0.04366 1.565804,-0.329407 2.255573,-0.762794 0.953293,-0.598752 1.390385,-1.490134 1.436687,-2.589742 z"
       id="path225" />
  </g>
</svg>
